<svg width="204" height="98" fill="none" xmlns="http://www.w3.org/2000/svg"><path fill-rule="evenodd" clip-rule="evenodd" d="M1.243 50.679c11.701 20.54 29.779 36.976 51.538 46.612l-4.987.697C28.337 88.474 12.001 73.562.738 55.202l.505-4.523zm201.795-20.43l-.002 8.012c-10.414 25.888-30.089 47.055-54.923 59.4l-3.504-1.347c27.542-12.91 48.903-36.816 58.429-66.066zM17.656 0c1.966 42.654 37.17 76.631 80.308 76.631 43.139 0 78.343-33.977 80.308-76.63h2.74c-1.968 44.165-38.397 79.367-83.048 79.367-44.65 0-81.08-35.202-83.048-79.367h2.74zm26.067 0c2.098 27.935 25.428 49.947 53.9 49.947 28.47 0 51.8-22.012 53.898-49.947h2.745c-2.104 29.447-26.661 52.684-56.644 52.684C67.64 52.684 43.082 29.447 40.98 0h2.744zm30.302 0c1.947 11.27 11.771 19.842 23.597 19.842S119.272 11.27 121.22 0h2.773c-1.974 12.788-13.029 22.578-26.37 22.578-13.34 0-24.395-9.79-26.37-22.578h2.773z" fill="#FFC882"/></svg>