<svg width="204" height="99" fill="none" xmlns="http://www.w3.org/2000/svg"><path fill-rule="evenodd" clip-rule="evenodd" d="M60.004 0L.23 59.773l.05-2.952L57.1 0h2.904zM4.832 89.445L94.278 0h-2.904L3.55 87.825l1.283 1.62zM128.551 0L31.36 97.191l-2.873-.029L125.648 0h2.903zM65.287 97.538L162.825 0h-2.903L62.414 97.509l2.873.029zM197.099 0L99.214 97.885l-2.873-.03L194.196 0h2.903zm6.187 28.086l.07-2.972-73.089 73.088 2.873.029 70.146-70.145zm-.824 35.098l.07-2.972-38.338 38.337 2.873.029 35.395-35.394zM.805 24.923L25.73 0h-2.904L.854 21.972l-.049 2.951z" fill="#173B41"/></svg>