<svg width="191" height="97" fill="none" xmlns="http://www.w3.org/2000/svg"><path fill-rule="evenodd" clip-rule="evenodd" d="M35.42 3.621V.885H23.63V3.62h11.79zm44.35.362L67.874 2.449l-.35 2.714L79.42 6.697l.35-2.714zm32.243 3.583l11.924 1.35-.308 2.719-11.923-1.35.307-2.72zm56.232 5.966v-2.736h-12.384v2.736h12.384zm9.576 16.37l11.967 1.865-.422 2.704-11.966-1.865.421-2.704zm-34.09 4.56l-9.836-5.556-1.346 2.383 9.836 5.557 1.346-2.383zm11.714 15.833l10.196 6.425-1.459 2.316-10.196-6.425 1.459-2.316zm34.669 23.793l-10.856-4.636-1.075 2.517 10.856 4.636 1.075-2.517zm-55.784-4.18l6.662 9.201-2.216 1.605-6.663-9.201 2.217-1.606zm-17.177-11.462l-4.009-10.947-2.569.94 4.008 10.948 2.57-.941zm-24.757-35.15l2.716.335-1.501 12.19-2.717-.334 1.502-12.19zm-.87 55.472V67.172h-2.737v11.596h2.737zm22.714 11.16l1.882 5.773-2.602.848-1.882-5.773 2.602-.849zm48.711 4.052l-4.348-3.777-1.795 2.066 4.348 3.777 1.795-2.066zM54.133 21.275l1.19 2.465-10.615 5.122-1.19-2.465 10.615-5.122zm-41.575 3.472l-.953-2.566L.387 26.347l.952 2.565 11.219-4.165zm18.21 17.907l1.687 2.157-9.876 7.72-1.686-2.156 9.876-7.72zM52.15 66.657l-2.32-1.454-5.9 9.417 2.32 1.453 5.9-9.416zm19.61-23.578l2.404 1.307-5.948 10.933-2.404-1.307 5.948-10.933zm1.118 45.824l-2.68-.553-1.55 7.498 2.68.554 1.55-7.499zm-42.482.821l2.432 1.255-2.98 5.773-2.432-1.255 2.98-5.773zM12.254 69.207l-2.148-1.696L1.891 77.92l2.148 1.695 8.216-10.408z" fill="#AFFFF4"/></svg>