<svg width="75" height="47" viewBox="0 0 75 47" fill="none" xmlns="http://www.w3.org/2000/svg">
<path opacity="0.490955" fill-rule="evenodd" clip-rule="evenodd" d="M50.2558 46.2209C63.7419 46.2209 74.6744 35.8741 74.6744 23.1104C74.6744 10.3469 63.7419 0 50.2558 0C36.7698 0 25.8372 10.3469 25.8372 23.1104C25.8372 35.8741 36.7698 46.2209 50.2558 46.2209Z" fill="url(#paint0_linear)"/>
<path fill-rule="evenodd" clip-rule="evenodd" d="M37.4185 46.2209C50.9047 46.2209 61.8372 35.8741 61.8372 23.1104C61.8372 10.3469 50.9047 0 37.4185 0C23.9326 0 13 10.3469 13 23.1104C13 35.8741 23.9326 46.2209 37.4185 46.2209Z" fill="url(#paint1_linear)"/>
<path fill-rule="evenodd" clip-rule="evenodd" d="M24.4185 46.2209C37.9047 46.2209 48.8372 35.8741 48.8372 23.1104C48.8372 10.3469 37.9047 0 24.4185 0C10.9326 0 0 10.3469 0 23.1104C0 35.8741 10.9326 46.2209 24.4185 46.2209Z" fill="url(#paint2_linear)"/>
<path d="M31.1462 23.9217C30.3946 23.2995 29.5614 22.7706 28.6668 22.348C27.6918 21.8758 26.689 21.4299 25.6025 20.984C24.7272 20.6773 23.9232 20.2142 23.2346 19.62C22.9847 19.3623 22.7919 19.0601 22.6675 18.7314C22.5431 18.4026 22.4897 18.0537 22.5104 17.7052C22.4533 17.021 22.6833 16.343 23.1511 15.8166C23.3727 15.5817 23.6488 15.3979 23.958 15.2797C24.2672 15.1614 24.6011 15.1118 24.9339 15.1347C25.3203 15.1104 25.7065 15.1824 26.0538 15.3436C26.4011 15.5048 26.697 15.7494 26.9118 16.0527C27.4301 16.8367 27.6738 17.7543 27.6083 18.6757H33.5139C33.629 16.7753 32.9828 14.9035 31.7034 13.4297C30.6621 12.3288 29.2773 11.5666 27.7475 11.2526V7.50171H22.7054V11.2526C21.168 11.5154 19.7396 12.1788 18.5825 13.1674C17.9329 13.7562 17.4214 14.4664 17.0807 15.2524C16.7401 16.0384 16.5779 16.8829 16.6046 17.7314C16.5798 18.7019 16.7695 19.6666 17.1617 20.5643C17.5324 21.3507 18.0843 22.0496 18.7775 22.6103C19.5218 23.2413 20.3564 23.771 21.2568 24.1841C22.2411 24.6387 23.2996 25.0846 24.4325 25.5218C25.3283 25.8169 26.1456 26.2912 26.8282 26.912C27.3047 27.4963 27.542 28.2227 27.4968 28.9581C27.5315 29.6281 27.2923 30.2851 26.8282 30.7941C26.5812 31.0178 26.2882 31.1913 25.9672 31.3038C25.6461 31.4167 25.304 31.4665 24.9618 31.4498C24.4931 31.478 24.0237 31.4052 23.5892 31.2369C23.1548 31.069 22.7668 30.8098 22.4547 30.4792C21.7937 29.6622 21.4763 28.6442 21.5632 27.6203H15.6853C15.5787 29.6274 16.3083 31.5944 17.7189 33.1022C19.0487 34.3944 20.8086 35.2184 22.7054 35.4368V38.7943H27.7475V35.2793C29.1563 35.01 30.4525 34.3634 31.4805 33.4172C32.1148 32.8214 32.6111 32.1083 32.937 31.3226C33.2633 30.5367 33.4122 29.696 33.3749 28.8529C33.4051 27.8711 33.2052 26.8949 32.7899 25.994C32.3922 25.208 31.8336 24.5038 31.1462 23.9217Z" fill="white"/>
<defs>
<linearGradient id="paint0_linear" x1="68.394" y1="90.0895" x2="144.29" y2="-0.610445" gradientUnits="userSpaceOnUse">
<stop stop-color="#FF8844" stop-opacity="0.01"/>
<stop offset="0.98992" stop-color="#FFBE7F" stop-opacity="0.411085"/>
</linearGradient>
<linearGradient id="paint1_linear" x1="55.5568" y1="90.0895" x2="131.453" y2="-0.610445" gradientUnits="userSpaceOnUse">
<stop stop-color="#FF8844" stop-opacity="0.01"/>
<stop offset="0.98992" stop-color="#FFBE7F" stop-opacity="0.411085"/>
</linearGradient>
<linearGradient id="paint2_linear" x1="50.4258" y1="96.674" x2="139.383" y2="-9.63476" gradientUnits="userSpaceOnUse">
<stop stop-color="#FF8844" stop-opacity="0.01"/>
<stop offset="0.853174" stop-color="#FFBE7F"/>
</linearGradient>
</defs>
</svg>
