<svg width="60" height="60" fill="none" xmlns="http://www.w3.org/2000/svg"><path fill-rule="evenodd" clip-rule="evenodd" d="M30 0c16.569 0 30 13.431 30 30 0 16.569-13.431 30-30 30C13.431 60 0 46.569 0 30 0 13.431 13.431 0 30 0zm0 1.026C13.998 1.026 1.026 13.998 1.026 30c0 16.002 12.972 28.974 28.974 28.974 16.002 0 28.974-12.972 28.974-28.974C58.974 13.998 46.002 1.026 30 1.026zM25.104 52.4l.767.152-.525 2.701-1.798-.358.117-.6 1.03.206.112-.575-.823-.162.111-.572.823.164.186-.956zm5.652-47.663v.011h.004V5.79l-.005-.001.001 8.556h3.703l7.345 7.473v18.148H36.02v4.79h-5.264v9.343c7.098-.225 13.411-3.618 17.62-8.834l.848.59C44.68 51.529 37.755 55.152 30 55.152h-.267V44.755h-7.027L19.26 41.25V20.23h4.708v-5.884h5.766V5.78l-.185.002c-6.622.126-12.581 3.007-16.817 7.564l-.736-.723c4.462-4.795 10.754-7.81 17.738-7.885v-.001h1.023zm-9.841 46.43l.772.272.2 1.113.172.06.32-.93.73.256-.89 2.6-1.004-.354c-.67-.235-.948-.643-.76-1.192l.006-.014c.128-.37.392-.51.696-.52l-.242-1.292zm.266 2.032l-.006.014c-.073.21.028.34.264.422l.24.084.215-.623-.237-.084c-.247-.086-.404-.025-.476.187zm-2.834-3.328l1.716.899-1.245 2.443-1.663-.87.276-.541.976.512.214-.421-.778-.407.255-.499.778.407.226-.444-1.03-.54.275-.54zm-2.457-1.676l1.58 1.123-1.557 2.25-1.53-1.089.344-.496.898.638.267-.387-.715-.508.318-.46.716.509.282-.408-.948-.675.345-.497zm-3.57-3.515l.559.613-.273.454.61.669.468-.24.491.538-2.58 1.224-.682-.748 1.408-2.51zm-.004 1.55l-.565.938.97-.496-.405-.443zm-2.21-4.882l.418.66-1.421.925 1.778-.36.14.22-1.067 1.484 1.42-.925.374.593-2.282 1.485-.546-.862.937-1.235-1.497.348-.535-.847 2.28-1.486zm39.632.855l-.434.606c-.168-.1-.347-.123-.536.142-.132.183-.116.351.012.445.135.1.232.044.464-.195.522-.573.858-.65 1.3-.325.394.293.445.833.066 1.366-.383.534-.82.672-1.311.372l.422-.59c.173.093.316.062.44-.113.123-.17.11-.314-.001-.395-.123-.091-.227-.062-.461.188-.465.517-.815.699-1.29.35-.402-.297-.498-.861-.088-1.432.445-.623.929-.75 1.417-.419zM23.967 21.27h-3.685v19.547l2.849 2.898h11.866v-3.749h-11.03V21.27zm26.175 18.44l1.86 1.013.332-.627.526.286-1.032 1.952-.527-.288.331-.626-1.859-1.013.37-.697zM8.85 38.495l.76 1.799-2.487 1.088-.738-1.743.55-.24.433 1.023.428-.188-.345-.815.508-.22.345.814.453-.199-.458-1.078.55-.241zm42.84-2.634l2.551.912-.29.837-1.727.315 1.439.514-.226.647-2.55-.911.248-.717 1.93-.373-1.602-.572.226-.652zM34.035 15.386H24.99v4.843h6.52l3.086 2.865-.69.769-2.792-2.593H24.99v17.655h15.791V22.25l-6.745-6.863zM7.887 35.15l.191.738-1.396 1.41 1.648-.44.174.67-2.624.702-.223-.859 1.259-1.248-1.48.396-.171-.666 2.623-.703zm44.417-2.216l2.656.513-.35 1.86-.586-.113.206-1.09-.458-.09-.164.87-.541-.105.163-.87-.483-.093-.216 1.153-.587-.114.36-1.921zm-44.701.068l.09.99-2.692.256-.091-.992c-.084-.914.295-1.444 1.037-1.57l.173-.023c.84-.08 1.396.377 1.483 1.34zm29.26-6.953l.724.736-6.756 6.874-2.511-2.554.723-.736 1.787 1.818 6.034-6.138zM6.208 32.48l-.03.003c-.512.05-.712.277-.669.75l.016.172 1.502-.143-.016-.18c-.042-.466-.302-.65-.803-.602zm46.35-3.81l2.706.075-.026 1.025-1.456.487 1.427.565-.025 1.007-2.707-.073.02-.784 1.685.045-1.667-.718.007-.26 1.701-.62-1.684-.045.019-.703zM4.982 27.246l2.7.214-.062.782-1.68-.133 1.627.804-.02.26-1.732.53 1.68.132-.056.702-2.699-.216.08-1.022 1.48-.41-1.396-.64.078-1.003zm49.815-2.41l.143.987c.132.908-.219 1.457-.953 1.622l-.172.032c-.835.123-1.414-.303-1.551-1.26l-.142-.983 2.675-.397zm-.478.87l-1.492.222.025.179c.06.424.292.602.714.572l.15-.018c.508-.076.696-.313.628-.784l-.025-.171zM5.736 23.8l.58.144-.263 1.08.452.111.21-.86.535.134-.209.86.478.119.276-1.14.58.144-.46 1.9-2.626-.652.447-1.84zm47.975-2.895l.267.847-1.19 1.312 1.456-.473.206.656-2.583.84-.229-.727 1.32-1.482-1.622.526-.208-.66 2.583-.839zm-46.605-.817l2.5 1.044-.286.703-1.947.271 1.57.656-.26.639-2.501-1.044.334-.82 1.74-.225-1.41-.589.26-.634zm45.2-2.265l.828 1.702-.536.269-.486-1-.418.21.387.796-.496.247-.387-.795-.442.222.514 1.053-.537.27-.855-1.758 2.428-1.216zM8.882 16.93l.51.314-.362.608 1.803 1.109-.405.677-1.803-1.108-.365.608-.511-.314 1.133-1.894zm40.871-3.026l.59.833-.87 1.281 1.476-.425.579.817-2.2 1.604-.452-.637 1.37-.999-1.756.453-.15-.212.986-1.538-1.37.998-.404-.573 2.201-1.602zm-38.226.881l-.453.567c-.167-.1-.311-.078-.445.09-.131.164-.126.309-.02.395.119.098.224.074.471-.163.49-.492.85-.656 1.307-.282.385.317.452.886.013 1.434-.478.599-.967.701-1.438.345l.466-.583c.162.108.34.14.542-.113.141-.176.134-.345.011-.446-.13-.107-.229-.055-.473.17-.551.546-.891.604-1.315.257-.379-.313-.402-.855.006-1.367.41-.513.853-.629 1.328-.303zm35.968-3.274l.721.711-1.275 2.58-.589-.583.248-.467-.644-.636-.454.264-.519-.512 2.512-1.357zm-.115.777l-.941.546.426.42.515-.966zm-4.386-4.176l1.585 1.007-.317.514-.931-.59-.247.4.741.47-.294.475-.741-.47-.26.422.982.625-.319.514-1.636-1.039 1.437-2.328zm-2.988-1.49l1.707.781-.247.555-1.002-.46-.191.431.798.366-.228.511-.799-.365-.202.454 1.056.486-.246.553-1.761-.808 1.115-2.505zm-3.464-1.145l1.02.3c.632.186.935.537.848 1.033l-.032.132c-.108.376-.364.529-.667.556l.31 1.277-.787-.232-.258-1.1-.175-.053-.27.947-.743-.219.754-2.641zm-3.161-.552l1.814.263-.085.606-1.04-.151-.081.58.83.118-.081.577-.83-.12-.136.964-.774-.111.383-2.726zm3.742 1.34l-.181.634.24.071c.22.064.365.02.439-.137l.032-.088c.061-.215-.046-.338-.286-.409l-.244-.07z" fill="#17434A"/></svg>